{
	"asset":{
		"generator":"Khronos glTF Blender I/O v3.6.28",
		"version":"2.0"
	},
	"scene":0,
	"scenes":[
		{
			"name":"Scene",
			"nodes":[
				0,
				1,
				2,
				3,
				4,
				5,
				6
			]
		}
	],
	"nodes":[
		{
			"name":"Empty",
			"translation":[
				0,
				1.0012874603271484,
				0
			]
		},
		{
			"mesh":0,
			"name":"Cylinder.006",
			"rotation":[
				0,
				0,
				-0.7071066498756409,
				0.7071069478988647
			],
			"scale":[
				0.35892152786254883,
				0.35892152786254883,
				0.35892152786254883
			],
			"translation":[
				-0.41973477602005005,
				0.9466341733932495,
				0
			]
		},
		{
			"mesh":1,
			"name":"Vert.012",
			"translation":[
				0,
				-0.0257879588752985,
				0
			]
		},
		{
			"mesh":2,
			"name":"Vert.010",
			"translation":[
				0,
				-0.38424134254455566,
				0
			]
		},
		{
			"mesh":3,
			"name":"Vert.013"
		},
		{
			"mesh":4,
			"name":"Vert.014",
			"translation":[
				0,
				-0.38424134254455566,
				0
			]
		},
		{
			"mesh":5,
			"name":"Plane.039",
			"rotation":[
				0.5943930745124817,
				-0.8041747808456421,
				0,
				1.3337918858269404e-07
			],
			"scale":[
				0.36338695883750916,
				0.36338695883750916,
				0.36338692903518677
			],
			"translation":[
				-0.4196310341358185,
				0.9353735446929932,
				0.3608538508415222
			]
		}
	],
	"materials":[
		{
			"doubleSided":true,
			"name":"Material.072",
			"pbrMetallicRoughness":{
				"baseColorFactor":[
					0.00546645000576973,
					0.18831688165664673,
					0.8003076910972595,
					1
				],
				"metallicFactor":0,
				"roughnessFactor":0.3499999940395355
			}
		},
		{
			"doubleSided":true,
			"name":"Material.073",
			"pbrMetallicRoughness":{
				"baseColorFactor":[
					0.004831463098526001,
					0.004451803397387266,
					0.004451803397387266,
					1
				],
				"metallicFactor":0,
				"roughnessFactor":0.3499999940395355
			}
		},
		{
			"doubleSided":true,
			"name":"Material.074",
			"pbrMetallicRoughness":{
				"baseColorFactor":[
					0.08089660853147507,
					0.3152604103088379,
					0.022191718220710754,
					1
				],
				"metallicFactor":0,
				"roughnessFactor":0.3499999940395355
			}
		},
		{
			"doubleSided":true,
			"name":"Material.075",
			"pbrMetallicRoughness":{
				"baseColorFactor":[
					0.47631293535232544,
					0.05599989369511604,
					0.005705849267542362,
					1
				],
				"metallicFactor":0,
				"roughnessFactor":0.3499999940395355
			}
		},
		{
			"doubleSided":true,
			"name":"Material.076",
			"pbrMetallicRoughness":{
				"baseColorFactor":[
					0.7415265440940857,
					0.21294501423835754,
					0.005064741708338261,
					1
				],
				"metallicFactor":0,
				"roughnessFactor":0.3499999940395355
			}
		}
	],
	"meshes":[
		{
			"name":"Cylinder.017",
			"primitives":[
				{
					"attributes":{
						"POSITION":0,
						"NORMAL":1,
						"TEXCOORD_0":2
					},
					"indices":3,
					"material":0
				}
			]
		},
		{
			"name":"Vert.024",
			"primitives":[
				{
					"attributes":{
						"POSITION":4,
						"NORMAL":5
					},
					"indices":6,
					"material":1
				}
			]
		},
		{
			"name":"Vert.025",
			"primitives":[
				{
					"attributes":{
						"POSITION":7,
						"NORMAL":8
					},
					"indices":9,
					"material":1
				}
			]
		},
		{
			"name":"Vert.026",
			"primitives":[
				{
					"attributes":{
						"POSITION":10,
						"NORMAL":11
					},
					"indices":12,
					"material":2
				}
			]
		},
		{
			"name":"Vert.027",
			"primitives":[
				{
					"attributes":{
						"POSITION":13,
						"NORMAL":14
					},
					"indices":15,
					"material":3
				}
			]
		},
		{
			"name":"Plane.081",
			"primitives":[
				{
					"attributes":{
						"POSITION":16,
						"NORMAL":17,
						"TEXCOORD_0":18
					},
					"indices":19,
					"material":4
				}
			]
		}
	],
	"accessors":[
		{
			"bufferView":0,
			"componentType":5126,
			"count":5968,
			"max":[
				0.9534533023834229,
				1.5291945934295654,
				0.9534533023834229
			],
			"min":[
				-0.9534533023834229,
				-1.5291945934295654,
				-0.9534533619880676
			],
			"type":"VEC3"
		},
		{
			"bufferView":1,
			"componentType":5126,
			"count":5968,
			"type":"VEC3"
		},
		{
			"bufferView":2,
			"componentType":5126,
			"count":5968,
			"type":"VEC2"
		},
		{
			"bufferView":3,
			"componentType":5123,
			"count":30528,
			"type":"SCALAR"
		},
		{
			"bufferView":4,
			"componentType":5126,
			"count":1604,
			"max":[
				0.7618002891540527,
				1.5332759618759155,
				0.08710391819477081
			],
			"min":[
				-0.003691380377858877,
				0.411568820476532,
				-0.08710356056690216
			],
			"type":"VEC3"
		},
		{
			"bufferView":5,
			"componentType":5126,
			"count":1604,
			"type":"VEC3"
		},
		{
			"bufferView":6,
			"componentType":5123,
			"count":9600,
			"type":"SCALAR"
		},
		{
			"bufferView":7,
			"componentType":5126,
			"count":1666,
			"max":[
				0.6435669660568237,
				1.4238313436508179,
				0.09478423744440079
			],
			"min":[
				0.0037749591283500195,
				1.2342628240585327,
				-0.09478388726711273
			],
			"type":"VEC3"
		},
		{
			"bufferView":8,
			"componentType":5126,
			"count":1666,
			"type":"VEC3"
		},
		{
			"bufferView":9,
			"componentType":5123,
			"count":9984,
			"type":"SCALAR"
		},
		{
			"bufferView":10,
			"componentType":5126,
			"count":3524,
			"max":[
				0.8985493183135986,
				1.6631457805633545,
				0.02439802698791027
			],
			"min":[
				-0.00441006338223815,
				0.23012328147888184,
				-0.024397652596235275
			],
			"type":"VEC3"
		},
		{
			"bufferView":11,
			"componentType":5126,
			"count":3524,
			"type":"VEC3"
		},
		{
			"bufferView":12,
			"componentType":5123,
			"count":21120,
			"type":"SCALAR"
		},
		{
			"bufferView":13,
			"componentType":5126,
			"count":4738,
			"max":[
				0.8882107734680176,
				1.3555963039398193,
				0.026549283415079117
			],
			"min":[
				-0.003357870504260063,
				1.3024978637695312,
				-0.02654891647398472
			],
			"type":"VEC3"
		},
		{
			"bufferView":14,
			"componentType":5126,
			"count":4738,
			"type":"VEC3"
		},
		{
			"bufferView":15,
			"componentType":5123,
			"count":28416,
			"type":"SCALAR"
		},
		{
			"bufferView":16,
			"componentType":5126,
			"count":208,
			"max":[
				0.5933440923690796,
				1.254980206489563,
				0.20000606775283813
			],
			"min":[
				-0.5933441519737244,
				-1.2549803256988525,
				-0.11568449437618256
			],
			"type":"VEC3"
		},
		{
			"bufferView":17,
			"componentType":5126,
			"count":208,
			"type":"VEC3"
		},
		{
			"bufferView":18,
			"componentType":5126,
			"count":208,
			"type":"VEC2"
		},
		{
			"bufferView":19,
			"componentType":5123,
			"count":1140,
			"type":"SCALAR"
		}
	],
	"bufferViews":[
		{
			"buffer":0,
			"byteLength":71616,
			"byteOffset":0,
			"target":34962
		},
		{
			"buffer":0,
			"byteLength":71616,
			"byteOffset":71616,
			"target":34962
		},
		{
			"buffer":0,
			"byteLength":47744,
			"byteOffset":143232,
			"target":34962
		},
		{
			"buffer":0,
			"byteLength":61056,
			"byteOffset":190976,
			"target":34963
		},
		{
			"buffer":0,
			"byteLength":19248,
			"byteOffset":252032,
			"target":34962
		},
		{
			"buffer":0,
			"byteLength":19248,
			"byteOffset":271280,
			"target":34962
		},
		{
			"buffer":0,
			"byteLength":19200,
			"byteOffset":290528,
			"target":34963
		},
		{
			"buffer":0,
			"byteLength":19992,
			"byteOffset":309728,
			"target":34962
		},
		{
			"buffer":0,
			"byteLength":19992,
			"byteOffset":329720,
			"target":34962
		},
		{
			"buffer":0,
			"byteLength":19968,
			"byteOffset":349712,
			"target":34963
		},
		{
			"buffer":0,
			"byteLength":42288,
			"byteOffset":369680,
			"target":34962
		},
		{
			"buffer":0,
			"byteLength":42288,
			"byteOffset":411968,
			"target":34962
		},
		{
			"buffer":0,
			"byteLength":42240,
			"byteOffset":454256,
			"target":34963
		},
		{
			"buffer":0,
			"byteLength":56856,
			"byteOffset":496496,
			"target":34962
		},
		{
			"buffer":0,
			"byteLength":56856,
			"byteOffset":553352,
			"target":34962
		},
		{
			"buffer":0,
			"byteLength":56832,
			"byteOffset":610208,
			"target":34963
		},
		{
			"buffer":0,
			"byteLength":2496,
			"byteOffset":667040,
			"target":34962
		},
		{
			"buffer":0,
			"byteLength":2496,
			"byteOffset":669536,
			"target":34962
		},
		{
			"buffer":0,
			"byteLength":1664,
			"byteOffset":672032,
			"target":34962
		},
		{
			"buffer":0,
			"byteLength":2280,
			"byteOffset":673696,
			"target":34963
		}
	],
	"buffers":[
		{
			"byteLength":675976,
			"uri":"data:application/octet-stream;base64,"
		}
	]
}
